<svg width="39" height="73" viewBox="0 0 39 73" fill="none" xmlns="http://www.w3.org/2000/svg">
<path d="M34.9505 42.2035C34.0191 40.0114 32.859 37.9098 31.5019 35.9465C30.2246 34.0949 28.7451 32.3125 27.0262 30.8547C29.2454 30.0513 31.2518 28.9127 32.9494 27.508C36.4406 24.6189 38.6386 20.5806 38.6332 16.106C38.6332 11.6313 36.4406 7.59298 32.9494 4.70389C29.4583 1.80948 24.6579 0.0377197 19.3733 0.0377197C14.0886 0.0377197 9.28826 1.80948 5.79709 4.70389C2.30592 7.59298 0.107969 11.6313 0.113291 16.106C0.113291 20.5806 2.30592 24.6189 5.79709 27.508C7.49477 28.9127 9.50645 30.0513 11.7257 30.8547C10.0014 32.3125 8.52722 34.0949 7.24997 35.9412C5.89288 37.8992 4.7327 40.0008 3.80137 42.1982C3.34369 43.273 2.93922 44.3743 2.59862 45.497C2.24737 46.6303 1.77905 47.9125 2.09304 49.1097C2.34849 50.0833 3.21064 50.9506 4.28034 50.8655C5.24361 50.7857 5.93013 49.9769 6.29735 49.1469C7.29786 46.8857 6.76567 43.8848 5.30215 41.9481C5.23829 41.863 5.16378 41.8045 5.08395 41.7726C5.95142 39.8572 6.99984 38.0215 8.17065 36.3243C9.30422 34.6855 10.5868 33.1851 11.9013 31.69C10.7305 35.3187 10.028 39.1602 9.55967 42.9218C9.42662 43.9913 9.32019 45.066 9.22971 46.1408C9.15521 47.04 9.09667 47.9764 9.31487 48.8649C9.72997 50.5462 11.0764 51.5465 12.657 52.0839C13.1253 52.2435 13.599 52.3765 14.078 52.4883C14.0035 53.4194 14.0301 54.3824 14.0301 55.3135C14.0301 56.3351 14.0354 57.3566 14.0354 58.3782C14.0407 60.4213 14.046 62.4697 14.0567 64.5128C14.062 65.7525 14.0886 67.0933 13.7374 68.3011C12.657 68.2053 11.5554 68.2373 10.4857 68.4288C9.57032 68.5938 8.38353 68.8225 7.98439 69.7909C7.63846 70.6262 8.11744 71.5307 8.80928 72.0149C9.55967 72.5416 10.5336 72.6161 11.4011 72.382C13.4287 71.8234 14.5197 69.9771 14.9188 68.0351C15.1477 66.9231 15.1477 65.7845 15.1477 64.6512C15.1477 63.3796 15.1424 62.1133 15.137 60.8416C15.1317 59.4317 15.1264 58.0217 15.1211 56.6117C15.1157 55.3188 15.1636 53.9834 15.0625 52.6851C17.8033 53.1427 20.6878 52.9192 23.3328 52.185C23.3168 52.2276 23.3062 52.2754 23.3062 52.3233C23.1571 53.7333 23.2263 55.1965 23.221 56.6117C23.2157 58.0217 23.2104 59.4317 23.205 60.8416C23.1997 62.1133 23.1944 63.3796 23.1944 64.6512C23.1944 65.7792 23.1944 66.9231 23.4232 68.0351C23.8224 69.9824 24.9187 71.8287 26.941 72.382C27.8085 72.6215 28.7824 72.5416 29.5328 72.0149C30.23 71.5307 30.7036 70.6262 30.3577 69.7909C29.9585 68.8279 28.7664 68.5938 27.8564 68.4288C26.7867 68.2373 25.6904 68.2053 24.6047 68.3011C24.2535 67.0933 24.2801 65.7525 24.2854 64.5128C24.296 62.4697 24.3013 60.4213 24.3067 58.3782C24.3067 57.3566 24.312 56.3351 24.312 55.3135C24.312 54.3026 24.3546 53.2598 24.2481 52.2542C24.2322 52.1105 24.1736 52.0201 24.0938 51.9509C25.7063 51.4348 27.3827 50.7165 28.6334 49.5619C30.0171 48.285 30.5386 46.6409 30.4482 44.784C30.3417 42.5707 29.7297 40.3094 29.1443 38.1812C28.5429 36.005 27.8032 33.8661 26.9304 31.7858C28.2129 33.249 29.4689 34.7174 30.5759 36.3243C31.7467 38.0215 32.8004 39.8572 33.6626 41.7726C33.5881 41.8098 33.5136 41.863 33.4444 41.9481C31.9809 43.8848 31.4433 46.8857 32.4492 49.1469C32.8164 49.9769 33.5029 50.7857 34.4662 50.8655C35.5306 50.9506 36.398 50.0833 36.6535 49.1097C36.9675 47.9179 36.4992 46.6356 36.1479 45.497C35.8073 44.385 35.4082 43.2836 34.9505 42.2035ZM5.4618 48.1626C5.29683 48.7958 4.81786 49.9184 3.98232 49.7588C2.84875 49.546 3.04566 47.9498 3.22661 47.1677C3.56189 45.7311 4.01957 44.3052 4.58369 42.9165C5.53099 44.4861 5.93545 46.3589 5.4618 48.1626ZM13.0775 69.727C12.3643 70.7486 10.5495 72.0202 9.36276 70.9295C8.474 70.1101 9.82577 69.7536 10.4697 69.6206C11.3957 69.4291 12.3271 69.3812 13.2637 69.4397C13.2052 69.5302 13.1413 69.6313 13.0775 69.727ZM27.8777 69.6153C28.5216 69.7483 29.8734 70.1048 28.9846 70.9242C27.7978 72.0202 25.9831 70.7486 25.2699 69.7217C25.2061 69.626 25.1422 69.5302 25.0837 69.4291C26.0203 69.3759 26.9517 69.4238 27.8777 69.6153ZM1.38523 16.1166C1.38523 12.0729 3.35965 8.39639 6.61134 5.69885C9.8577 3.00662 14.376 1.32531 19.3733 1.32531C24.3705 1.32531 28.8888 3.00662 32.1352 5.69885C35.3816 8.39107 37.356 12.0676 37.3613 16.1166C37.3613 20.1603 35.3869 23.8368 32.1352 26.5343C28.8888 29.2266 24.3759 30.9079 19.3733 30.9079C14.376 30.9079 9.8577 29.2266 6.61134 26.5343C3.35965 23.8368 1.38523 20.1603 1.38523 16.1166ZM28.5482 47.8913C27.6275 49.1789 26.1108 49.9184 24.6739 50.4824C21.3637 51.7806 17.7075 52.0413 14.2376 51.3071C12.8114 51.0038 11.0871 50.4771 10.507 48.982C10.1983 48.1839 10.2249 47.29 10.2781 46.4494C10.3367 45.5129 10.4325 44.5818 10.5389 43.6561C10.7837 41.5118 11.1296 39.3836 11.566 37.266C11.9811 35.2495 12.5346 33.2809 13.0508 31.291C15.0306 31.8656 17.154 32.1795 19.3679 32.1795C21.4169 32.1795 23.386 31.9082 25.238 31.4187C25.2486 31.4453 25.2593 31.4772 25.2753 31.5038C25.3019 31.5464 25.3338 31.5889 25.3657 31.6262C25.403 31.69 25.4456 31.7592 25.4828 31.823C25.5254 31.8975 25.5733 31.9773 25.6105 32.0571C25.6638 32.1742 25.717 32.2859 25.7862 32.3977C25.8181 32.4509 25.8553 32.5094 25.8873 32.5626C27.2657 35.8614 28.3034 39.2878 28.9687 42.8048C29.2933 44.4861 29.6126 46.4015 28.5482 47.8913ZM34.7695 49.7588C33.934 49.9131 33.455 48.7904 33.29 48.1626C32.8164 46.3642 33.2209 44.4861 34.1682 42.9218C34.7323 44.3105 35.19 45.7311 35.5252 47.173C35.7062 47.9498 35.8978 49.5513 34.7695 49.7588Z" fill="#242647"/>
<path d="M10.6877 8.82733C10.3897 8.77413 10.097 8.91779 9.92139 9.15722L9.88414 9.22106C9.80963 9.30087 9.74577 9.386 9.7032 9.48709C9.59676 9.71588 9.5595 9.99787 9.54886 10.2479C9.54354 10.4661 9.5595 10.6789 9.59144 10.8917C9.59144 11.0407 9.59144 11.1897 9.59676 11.3387C9.6074 11.5621 9.67659 11.7962 9.81496 11.9825C10.0012 12.2325 10.3365 12.3709 10.6452 12.3017C10.9645 12.2272 11.2199 12.0144 11.353 11.7111C11.4381 11.5196 11.4541 11.3067 11.4647 11.0992C11.4914 10.9769 11.5073 10.8545 11.518 10.7321C11.5552 10.2958 11.5393 9.76376 11.337 9.36472C11.204 9.09337 10.9911 8.88054 10.6877 8.82733Z" fill="#242647"/>
<path d="M23.2213 11.3333C23.2372 11.5568 23.3011 11.7909 23.4395 11.9771C23.6257 12.2272 23.961 12.3655 24.2697 12.2964C24.589 12.2219 24.8444 12.0091 24.9775 11.7058C25.0626 11.5142 25.0786 11.3014 25.0893 11.0939C25.1159 10.9715 25.1318 10.8492 25.1425 10.7268C25.1797 10.2905 25.1638 9.75844 24.9615 9.35939C24.8285 9.09336 24.6156 8.88054 24.3123 8.82733C24.0142 8.77413 23.7215 8.91779 23.5459 9.15722L23.5087 9.22106C23.4341 9.30087 23.3703 9.386 23.3277 9.48709C23.2213 9.71588 23.184 9.99787 23.1734 10.2479C23.168 10.4661 23.184 10.6789 23.2159 10.8917C23.2106 11.0354 23.2159 11.1844 23.2213 11.3333Z" fill="#242647"/>
<path d="M20.187 14.5098C20.4478 13.8927 19.6229 13.483 19.2131 13.9512C18.9257 14.2757 18.7075 14.579 18.3137 14.7918C17.9252 14.9993 17.4835 15.1164 17.0418 15.127C16.5628 15.1377 16.0838 15.0366 15.6208 14.9142C15.3707 14.8504 15.1259 14.7546 14.897 14.6429C14.6522 14.5258 14.434 14.3981 14.1573 14.3981C14.0508 14.3981 13.9338 14.4779 13.9604 14.6003C14.0881 15.1856 14.7853 15.558 15.2696 15.8294C15.855 16.1592 16.5415 16.2869 17.2121 16.2603C17.7762 16.239 18.3509 16.0847 18.8459 15.8134C19.3727 15.5154 19.9422 15.0845 20.187 14.5098Z" fill="#242647"/>
</svg>
